# xmcd CD database file
#
# Track frame offsets:
#	150
#	23752
#	45460
#	62935
#	114735
#	165070
#	200852
#
# Disc length: 3338 seconds
#
# Revision: 6
# Processed by: cddbd v1.5.1PL2 Copyright (c) Steve Scherf et al.
# Submitted via: CDex 1.51
#
DISCID=580d0807
DTITLE=Julian Sas - Delivered
DYEAR=2002
DGENRE=Blues
TTITLE0=When I Boogie
TTITLE1=Am I Losing My Way
TTITLE2=Mean Old City
TTITLE3=I Wonder Who
TTITLE4=Hey Joe
TTITLE5=Blues For The Lost And Found
TTITLE6=Travelling Home - Bullfrog Blues - Boogie Jam
EXTD=YEAR: 2002
EXTT0=
EXTT1=
EXTT2=
EXTT3=
EXTT4=
EXTT5=
EXTT6=
PLAYORDER=
